<?xml version="1.0" encoding="utf-8"?>
<svg viewBox="0 0 1023 1023" xmlns="http://www.w3.org/2000/svg">
  <path fill="#221F1F" transform="matrix(2, 0, 0, 2, 0, 0)" d="M98.1214 87.5456L366.751 87.5359C378.42 87.5247 390.314 88.6504 392.82 103.543C393.544 107.844 392.991 112.627 392.984 116.999L392.972 273.829C392.959 279.116 392.599 284.643 393.021 289.909C393.254 292.821 441.647 366.222 445.754 372.4C451.273 380.702 458.165 388.894 462.588 397.851C466.795 406.371 461.068 418.133 451.832 420.285C446.88 421.44 436.339 420.813 430.94 420.813L389.125 420.805L252.872 420.804C247.664 420.807 242.267 421.161 237.085 420.839C226.792 420.199 219.251 409.904 222.505 399.799C226.012 388.911 240.747 372.774 246.892 361.244L84.8105 361.251C79.2406 361.252 72.3032 361.772 66.8594 360.972C55.6442 359.322 48.9361 349.097 48.9148 338.277L48.9993 113.927C49.0056 89.52 59.2131 87.5158 81.0692 87.5262L98.1214 87.5456Z"/>
  <path fill="white" transform="matrix(2, 0, 0, 2, 0, 0)" d="M286.516 175.699C289.578 175.68 292.639 175.658 295.701 175.699C299.902 198.078 316.306 212.802 339.051 215.133C339.16 218.923 339.055 222.744 339.051 226.538C330.972 229.033 327.815 236.266 323.493 242.835L279.922 309.493C276.89 314.235 273.276 318.743 270.72 323.757L164.875 323.757L152.475 323.757C149.484 301.615 135.014 284.831 111.942 282.439L111.942 215.133C129.118 212.303 143.447 203.727 150.405 186.825C151.838 183.343 152.382 179.576 153.876 176.113L154.058 175.699L286.516 175.699Z"/>
  <path fill="#8861C5" transform="matrix(2, 0, 0, 2, 0, 0)" d="M109.126 97.1672L365.285 97.1474C381.778 97.05 383.752 97.7315 383.721 115.143L383.687 129.769L298.332 129.762C292.218 129.761 253.99 128.68 251.196 130.299C248.128 132.077 248.662 135.515 250.235 138.141C254.196 140.825 264.121 139.573 268.89 139.571L383.687 139.565L383.687 275.549C379.914 271.385 377.011 266.06 374.002 261.322L361.132 241.271C357.504 235.606 355.02 230.194 348.617 227.292C348.132 222.837 349.917 209.908 347.176 206.892C344.173 203.586 315.541 209.108 306.107 179.14C302.027 166.176 308.103 165.999 292.585 166.006L231.125 166.017L158.274 166.011C146.363 166.017 146.156 163.934 143.88 176.048C141.147 190.595 128.482 203.306 113.692 205.441C108.443 206.199 102.84 205.232 102.766 212.091C102.587 228.773 102.82 245.496 102.822 262.183L102.826 277.419C102.833 289.294 100.717 290.574 113.676 292.321C127.522 294.188 138.517 304.811 141.937 318.141C143.266 323.319 141.205 332.434 148.421 333.094C152.836 333.498 157.453 333.247 161.891 333.249L264.324 333.242C262.844 336.604 254.921 349.112 252.565 351.757C252.092 351.784 251.619 351.807 251.145 351.808L87.5377 351.764C77.68 351.772 59.7787 355.323 58.3891 340.978C58.1026 338.02 58.2457 334.946 58.2525 331.974L58.2525 115.574C58.2316 95.5196 63.8508 97.1452 81.5584 97.1518L109.126 97.1672Z"/>
  <path fill="#221F1F" transform="matrix(2, 0, 0, 2, 0, 0)" d="M189.842 127.837C193.711 127.742 210.642 127.072 213.108 128.912C216.889 131.732 214.343 137.368 210.062 137.736L196.895 137.77C194.542 137.774 192.002 137.968 189.675 137.624C182.364 136.543 182.986 128.481 189.842 127.837Z"/>
  <path fill="#221F1F" transform="matrix(2, 0, 0, 2, 0, 0)" d="M142.964 127.837C151.036 127.82 165.701 124.412 167.863 132.987C167.238 135.031 166.427 136.26 164.875 137.736C163.293 137.906 161.654 137.78 160.062 137.736L147.896 137.72C144.496 137.728 139.486 138.514 136.676 136.071C131.875 131.896 137.683 128.029 142.964 127.837Z"/>
  <path fill="#221F1F" transform="matrix(2, 0, 0, 2, 0, 0)" d="M90.7767 127.837L104.585 127.809C111.259 127.803 124.519 128.234 115.197 137.736L112.744 137.736L98.2078 137.726C94.9215 137.739 90.1247 138.626 87.2341 136.624C83.0273 133.709 85.3896 128.258 90.7767 127.837Z"/>
  <text style="fill: rgb(34, 31, 31); font-family: 'Comic Sans MS'; font-size: 69px; font-weight: 700; text-anchor: middle; white-space: pre;" x="452.672" y="511.468">[Attribute]</text>
  <g>
    <path fill="#6F0085" d="M 686.44 471.164 C 696.46 470.56 703.338 487.282 707.718 494.128 L 867.01 741.268 C 873.554 751.632 908.782 800.56 909.106 809.204 C 909.756 826.546 883.6 823.314 873.29 823.268 L 686.44 823.246 L 498.88 823.286 C 464.178 823.346 449.546 823.9 475.012 785.522 L 492.632 758.742 C 501.348 745.534 509.398 731.988 517.866 718.636 L 593.386 601.884 C 613.272 571.76 633.724 542.04 653.104 511.574 C 659.84 500.986 673.032 472.99 686.44 471.164 Z" style="paint-order: stroke markers; stroke-width: 39px; stroke: rgb(34, 31, 31);"/>
    <path fill="#221F1F" d="M 683.198 725.128 C 722.666 720.808 734.304 781.274 691.566 788.914 C 650.88 795.19 636.53 733.942 683.198 725.128 Z"/>
    <path fill="white" d="M 683.198 743.066 C 701.964 742.044 706.854 765.392 689.216 771.732 C 669.62 773.288 665.68 749.12 683.198 743.066 Z"/>
    <path fill="#221F1F" d="M 683.198 552.766 C 713.566 549.698 715.756 578.364 715.78 600.612 L 715.79 667.066 C 715.774 690.634 716.974 709.856 689.216 714.866 C 657.382 717.594 656.062 690.34 656.04 666.476 L 656.042 601.302 C 656.06 577.448 655.044 557.59 683.198 552.766 Z"/>
    <path fill="#B4B7C6" d="M 683.198 570.63 C 688.152 570.846 693.798 571.866 696.278 576.79 C 699.178 582.542 697.668 688.826 696.708 690.904 C 695.158 694.258 692.498 695.814 689.216 697.204 C 684.128 697.732 677.778 696.63 675.466 691.364 C 673.762 687.484 674.152 593.36 674.66 581.852 C 674.922 575.914 677.18 572.552 683.198 570.63 Z"/>
  </g>
</svg>